:FULLY-SPECIFIED
:FORCE-ALL-JOINTS-BE-3DOF
:DEGREES
14
root -2.30058 17.3131 -31.1422 -0.353831 -6.17892 -2.42915
lfemur -28.0167 -0.094767 -17.2292
ltibia 44.6819 0 0
lfoot -9.71523 4.88247 -0.00033959
ltoes -4.36175 0 0
rfemur -5.00117 7.37995 27.8875
rtibia 38.9417 0 0
rfoot -9.39245 -7.45375 0.398478
rtoes 5.71752 0 0
lowerback 8.2089 0.154639 0.169616
upperback -0.91934 0.481424 4.33901
thorax -5.63502 0.291487 4.46871
lowerneck -9.09295 -1.89651 -12.193
upperneck 19.8446 -1.46457 4.57912
head 7.75598 -1.18799 3.40524
lclavicle 2.27634e-14 -1.82087e-14 -5.97052e-32
lhumerus -39.342 12.1475 85.1484
lradius 27.1681 0 0
lwrist -11.6292 0 0
lhand -12.8093 30.8717 -0.00506594
lfingers 7.12502 0 0
lthumb 13.2769 60.4274 -0.00518629
rclavicle 2.27634e-14 -1.82087e-14 -5.97052e-32
rhumerus -30.9803 -4.41188 -78.9689
rradius 37.9222 0 0
rwrist 1.98172 0 0
rhand -17.3624 10.8146 0.000428917
rfingers 7.12502 0 0
rthumb 8.88559 -18.9775 0.000545653
15
root -2.31329 17.3088 -30.9286 -0.0339662 -5.85207 -2.39999
lfemur -28.3723 -0.421405 -17.2068
ltibia 42.6889 0 0
lfoot -10.0441 5.26744 0.00280585
ltoes -6.50838 0 0
rfemur -5.02532 6.7709 27.789
rtibia 38.5146 0 0
rfoot -9.95201 -7.48032 0.351397
rtoes 4.93211 0 0
lowerback 8.09459 -0.00263197 0.23748
upperback -1.11845 0.274529 4.23245
thorax -5.76047 0.189035 4.31842
lowerneck -8.80336 -1.85658 -12.1955
upperneck 19.8632 -1.45438 4.6031
head 7.71015 -1.18389 3.41365
lclavicle 1.60457e-15 1.74136e-14 -7.06326e-32
lhumerus -39.6631 12.279 84.8817
lradius 27.0997 0 0
lwrist -12.046 0 0
lhand -14.9635 27.7701 0.0227059
lfingers 7.12502 0 0
lthumb 11.1993 57.4403 0.0197556
rclavicle 1.60457e-15 1.74136e-14 -7.06326e-32
rhumerus -30.7449 -3.91167 -79.3473
rradius 38.0789 0 0
rwrist 2.03144 0 0
rhand -17.3821 11.047 0.00164642
rfingers 7.12502 0 0
rthumb 8.86662 -18.7458 0.00172677
16
root -2.32285 17.305 -30.6988 0.218905 -5.90818 -2.53568
lfemur -28.4559 -0.655082 -17.001
ltibia 40.5451 0 0
lfoot -9.51005 5.14955 0.00785537
ltoes -6.1734 0 0
rfemur -4.83736 6.43571 27.8503
rtibia 37.9052 0 0
rfoot -10.5284 -7.44063 0.305506
rtoes 4.12387 0 0
lowerback 7.84653 -0.197919 0.134782
upperback -1.29208 0.0194913 4.50159
thorax -5.78856 0.0715942 4.6976
lowerneck -8.02214 -1.49402 -12.5143
upperneck 19.3114 -0.993865 4.52662
head 7.35039 -0.983413 3.46558
lclavicle 7.46669e-15 -2.25819e-14 5.01872e-31
lhumerus -40.3397 13.1262 84.8861
lradius 27.0693 0 0
lwrist -11.3544 0 0
lhand -16.5245 25.7733 0.0477534
lfingers 7.12502 0 0
lthumb 9.69318 55.5094 0.0422583
rclavicle 7.46669e-15 -2.25819e-14 5.01872e-31
rhumerus -30.471 -2.60754 -79.5222
rradius 38.1471 0 0
rwrist 1.99931 0 0
rhand -17.5045 10.8741 0.00160337
rfingers 7.12502 0 0
rthumb 8.74851 -18.9235 0.00171413
17
root -2.33012 17.2945 -30.4685 0.350386 -6.05555 -2.68277
lfemur -28.3687 -1.02366 -16.7073
ltibia 38.3714 0 0
lfoot -9.04029 5.25384 0.0200535
ltoes -6.0533 0 0
rfemur -4.50261 6.26086 27.9499
rtibia 37.2618 0 0
rfoot -11.1293 -7.5073 0.259439
rtoes 2.57393 0 0
lowerback 7.90817 -0.788429 -0.610251
upperback -1.69337 -0.788864 5.31705
thorax -6.16458 -0.273228 6.15369
lowerneck -6.81541 -0.570331 -13.3649
upperneck 18.667 0.273072 4.20751
head 6.81635 -0.443134 3.56136
lclavicle -3.50856e-15 3.02153e-15 -4.78523e-31
lhumerus -41.9105 15.7275 84.6428
lradius 27.1192 0 0
lwrist -10.9047 0 0
lhand -16.7038 25.6537 0.0395102
lfingers 7.12502 0 0
lthumb 9.52008 55.395 0.0338606
rclavicle -3.50856e-15 3.02153e-15 -4.78523e-31
rhumerus -30.5947 0.703465 -79.6783
rradius 38.3872 0 0
rwrist 1.45807 0 0
rhand -17.3406 11.2447 -0.00238188
rfingers 7.12502 0 0
rthumb 8.90657 -18.546 -0.00209966
